<svg width="24" height="24" viewBox="0 0 24 24" fill="currentColor" xmlns="http://www.w3.org/2000/svg"><path d="M12.75 5.75C12.75 5.33579 12.4142 5 12 5C11.5858 5 11.25 5.33579 11.25 5.75V12C11.25 12.1989 11.329 12.3897 11.4697 12.5303L14.7197 15.7803C15.0126 16.0732 15.4874 16.0732 15.7803 15.7803C16.0732 15.4874 16.0732 15.0126 15.7803 14.7197L12.75 11.6893V5.75Z"/><path fill-rule="evenodd" clip-rule="evenodd" d="M22 12C22 17.5228 17.5228 22 12 22C6.47715 22 2 17.5228 2 12C2 6.47715 6.47715 2 12 2C17.5228 2 22 6.47715 22 12ZM20.5 12C20.5 16.6944 16.6944 20.5 12 20.5C7.30558 20.5 3.5 16.6944 3.5 12C3.5 7.30558 7.30558 3.5 12 3.5C16.6944 3.5 20.5 7.30558 20.5 12Z"/></svg>