<svg width="20" height="20" viewBox="0 0 20 20" fill="currentColor" xmlns="http://www.w3.org/2000/svg"><path fill-rule="evenodd" clip-rule="evenodd" d="M17.8536 2.85355C18.0488 2.65829 18.0488 2.34171 17.8536 2.14645C17.6583 1.95118 17.3417 1.95118 17.1464 2.14645L2.14645 17.1464C1.95118 17.3417 1.95118 17.6583 2.14645 17.8536C2.34171 18.0488 2.65829 18.0488 2.85355 17.8536L6.83574 13.8714C7.21322 14.1799 7.63451 14.4321 8.08658 14.6194C8.53866 14.8067 9.01492 14.9262 9.5 14.9749V17H7.5C7.22386 17 7 17.2239 7 17.5C7 17.7761 7.22386 18 7.5 18H12.5C12.7761 18 13 17.7761 13 17.5C13 17.2239 12.7761 17 12.5 17H10.5V14.9749C10.9851 14.9262 11.4613 14.8067 11.9134 14.6194C12.52 14.3681 13.0712 13.9998 13.5355 13.5355C13.9998 13.0712 14.3681 12.52 14.6194 11.9134C14.8707 11.3068 15 10.6566 15 10C15 9.72386 14.7761 9.5 14.5 9.5C14.2239 9.5 14 9.72386 14 10C14 10.5253 13.8965 11.0454 13.6955 11.5307C13.4945 12.016 13.1999 12.457 12.8284 12.8284C12.457 13.1999 12.016 13.4945 11.5307 13.6955C11.0454 13.8965 10.5253 14 10 14C9.47471 14 8.95457 13.8965 8.46927 13.6955C8.13872 13.5586 7.82875 13.3783 7.54731 13.1598L8.26173 12.4454C8.75214 12.7946 9.35209 13 10 13C11.6569 13 13 11.6569 13 10V7.70711L17.8536 2.85355ZM12 8.70711L8.98402 11.7231C9.28177 11.899 9.6291 12 10 12C11.1046 12 12 11.1046 12 10V8.70711Z"/><path d="M10 2C11.617 2 12.9352 3.27931 12.9977 4.881L12 5.87868V5C12 3.89543 11.1046 3 10 3C8.89543 3 8 3.89543 8 5V9.87868L7.10161 10.7771C7.03534 10.5292 7 10.2687 7 10V5C7 3.34315 8.34315 2 10 2Z"/><path d="M6.30448 11.5307L6.31732 11.5614L5.56666 12.312C5.49893 12.1822 5.43684 12.0492 5.3806 11.9134C5.12933 11.3068 5 10.6566 5 10C5 9.72386 5.22386 9.5 5.5 9.5C5.77614 9.5 6 9.72386 6 10C6 10.5253 6.10346 11.0454 6.30448 11.5307Z"/></svg>